<svg width="60" height="58" viewBox="0 0 60 58" fill="none" xmlns="http://www.w3.org/2000/svg">
<path d="M27.743 2.75082C28.6508 0.416393 32.0862 0.416393 32.9968 2.75082L38.8691 18.6106C39.2804 19.6616 40.3272 20.3614 41.496 20.3614H55.9269C58.5935 20.3614 59.7566 23.5975 57.6602 25.1824L47.3909 34.1909C46.9309 34.5357 46.5947 35.0137 46.4306 35.5563C46.2665 36.099 46.2829 36.6783 46.4774 37.2113L50.2277 52.7087C51.1412 55.198 48.1852 57.3361 45.9498 55.8038L32.0011 47.1741C31.5234 46.8468 30.9538 46.6711 30.3699 46.6711C29.7861 46.6711 29.2164 46.8468 28.7387 47.1741L14.79 55.8038C12.5575 57.3361 9.59864 55.1953 10.5121 52.7087L14.2624 37.2113C14.4569 36.6783 14.4733 36.099 14.3092 35.5563C14.1451 35.0137 13.8089 34.5357 13.3489 34.1909L3.0796 25.1824C0.980343 23.5975 2.14912 20.3614 4.81006 20.3614H19.241C19.8092 20.3632 20.3646 20.1968 20.8337 19.8842C21.3027 19.5715 21.6634 19.1274 21.8679 18.6106L27.7402 2.75082H27.743Z" stroke="#E9BF2B" stroke-width="2" stroke-linecap="round" stroke-linejoin="round"/>
</svg>
