<svg width="60" height="58" viewBox="0 0 60 58" fill="none" xmlns="http://www.w3.org/2000/svg">
<path d="M27.743 2.75082C28.6508 0.416393 32.0862 0.416393 32.9968 2.75082L38.8691 18.6106C39.2804 19.6616 40.3272 20.3614 41.496 20.3614H55.9269C58.5935 20.3614 59.7566 23.5975 57.6602 25.1824L47.3909 34.1909C46.9309 34.5357 46.5947 35.0137 46.4306 35.5563C46.2665 36.099 46.2829 36.6783 46.4774 37.2113L50.2277 52.7087C51.1412 55.198 48.1852 57.3361 45.9498 55.8038L32.0011 47.1741C31.5234 46.8468 30.9538 46.6711 30.3699 46.6711C29.7861 46.6711 29.2164 46.8468 28.7387 47.1741L14.79 55.8038C12.5575 57.3361 9.59864 55.1953 10.5121 52.7087L14.2624 37.2113C14.4569 36.6783 14.4733 36.099 14.3092 35.5563C14.1451 35.0137 13.8089 34.5357 13.3489 34.1909L3.0796 25.1824C0.980343 23.5975 2.14912 20.3614 4.81006 20.3614H19.241C19.8092 20.3632 20.3646 20.1968 20.8337 19.8842C21.3027 19.5715 21.6634 19.1274 21.8679 18.6106L27.7402 2.75082H27.743Z" fill="#E9BF2B" stroke="#E9BF2B" stroke-width="2" stroke-linecap="round" stroke-linejoin="round"/>
<path fill-rule="evenodd" clip-rule="evenodd" d="M29.7503 1.00049C28.8906 1.18098 28.1101 1.74326 27.743 2.68731H27.7402L21.8679 18.547C21.6634 19.0639 21.3027 19.508 20.8337 19.8207C20.3646 20.1333 19.8092 20.2997 19.241 20.2979H4.81007C2.14912 20.2979 0.980343 23.534 3.0796 25.1188L13.3489 34.1274C13.8089 34.4722 14.1451 34.9502 14.3092 35.4928C14.4733 36.0355 14.4569 36.6148 14.2624 37.1478L10.5121 52.6452C9.59864 55.1317 12.5575 57.2726 14.79 55.7402L28.7387 47.1106C29.045 46.9008 29.389 46.7533 29.7503 46.6744V1.00049Z" fill="#E9BF2B"/>
<path d="M27.743 2.68731V3.68731C28.1554 3.68731 28.5255 3.43412 28.675 3.04974L27.743 2.68731ZM29.7503 1.00049H30.7503C30.7503 0.699223 30.6145 0.414014 30.3806 0.224129C30.1467 0.0342447 29.8397 -0.0400757 29.5449 0.0218242L29.7503 1.00049ZM27.7402 2.68731V1.68731C27.3218 1.68731 26.9477 1.94775 26.8024 2.34009L27.7402 2.68731ZM21.8679 18.547L22.7978 18.915C22.8005 18.9081 22.8031 18.9012 22.8057 18.8943L21.8679 18.547ZM19.241 20.2979L19.2443 19.2979H19.241V20.2979ZM3.0796 25.1188L3.73905 24.3671C3.72065 24.351 3.70167 24.3355 3.68213 24.3208L3.0796 25.1188ZM13.3489 34.1274L12.6895 34.8792C12.7087 34.8961 12.7287 34.9122 12.7492 34.9276L13.3489 34.1274ZM14.3092 35.4928L15.2664 35.2034L15.2664 35.2033L14.3092 35.4928ZM14.2624 37.1478L13.323 36.8049C13.3101 36.8402 13.2993 36.8761 13.2904 36.9126L14.2624 37.1478ZM10.5121 52.6452L11.4508 52.99C11.4639 52.9541 11.4751 52.9175 11.484 52.8804L10.5121 52.6452ZM14.79 55.7402L14.2639 54.8898C14.2505 54.8982 14.2372 54.9068 14.2242 54.9158L14.79 55.7402ZM28.7387 47.1106L29.2649 47.961C29.2781 47.9528 29.2912 47.9443 29.304 47.9355L28.7387 47.1106ZM29.7503 46.6744L29.9635 47.6514C30.4228 47.5512 30.7503 47.1445 30.7503 46.6744H29.7503ZM28.675 3.04974C28.9064 2.45462 29.3895 2.09804 29.9558 1.97915L29.5449 0.0218242C28.3917 0.263926 27.3138 1.03189 26.811 2.32488L28.675 3.04974ZM27.7402 3.68731H27.743V1.68731H27.7402V3.68731ZM22.8057 18.8943L28.678 3.03454L26.8024 2.34009L20.9301 18.1998L22.8057 18.8943ZM21.3883 20.6528C22.0242 20.2289 22.5172 19.624 22.7978 18.915L20.9381 18.1791C20.8096 18.5038 20.5813 18.7871 20.2791 18.9886L21.3883 20.6528ZM19.2378 21.2979C20.0028 21.3003 20.7526 21.0764 21.3883 20.6528L20.2791 18.9886C19.9766 19.1902 19.6157 19.2991 19.2443 19.2979L19.2378 21.2979ZM4.81007 21.2979H19.241V19.2979H4.81007V21.2979ZM3.68213 24.3208C2.42223 23.3696 3.01555 21.2979 4.81007 21.2979V19.2979C1.28268 19.2979 -0.461539 23.6984 2.47706 25.9169L3.68213 24.3208ZM14.0084 33.3757L3.73905 24.3671L2.42014 25.8706L12.6895 34.8792L14.0084 33.3757ZM15.2664 35.2033C15.0397 34.4537 14.5766 33.7979 13.9487 33.3272L12.7492 34.9276C13.0413 35.1465 13.2505 35.4467 13.352 35.7823L15.2664 35.2033ZM15.2018 37.4907C15.4705 36.7546 15.4932 35.9533 15.2664 35.2034L13.352 35.7823C13.4534 36.1176 13.4434 36.4751 13.323 36.8049L15.2018 37.4907ZM11.484 52.8804L15.2343 37.383L13.2904 36.9126L9.54015 52.41L11.484 52.8804ZM14.2242 54.9158C13.4949 55.4163 12.6591 55.3249 12.0575 54.8896C11.4606 54.4577 11.1708 53.7521 11.4508 52.99L9.57343 52.3004C8.93991 54.0249 9.67284 55.6329 10.8851 56.51C12.0926 57.3836 13.8526 57.5965 15.3559 56.5647L14.2242 54.9158ZM28.2126 46.2602L14.2639 54.8898L15.3162 56.5907L29.2649 47.961L28.2126 46.2602ZM29.5371 45.6974C29.0513 45.8034 28.5875 46.002 28.1735 46.2857L29.304 47.9355C29.5024 47.7995 29.7266 47.7031 29.9635 47.6514L29.5371 45.6974ZM30.7503 46.6744V1.00049H28.7503V46.6744H30.7503Z" fill="#E9BF2B"/>
</svg>
