<svg width="40" height="27" viewBox="0 0 40 27" fill="none" xmlns="http://www.w3.org/2000/svg">
<path fill-rule="evenodd" clip-rule="evenodd" d="M1.53333 0.55899C1.12667 0.55899 0.736659 0.708215 0.449103 0.973835C0.161547 1.23946 0 1.59971 0 1.97536C0 2.351 0.161547 2.71126 0.449103 2.97688C0.736659 3.2425 1.12667 3.39173 1.53333 3.39173H38.3334C38.74 3.39173 39.13 3.2425 39.4176 2.97688C39.7052 2.71126 39.8667 2.351 39.8667 1.97536C39.8667 1.59971 39.7052 1.23946 39.4176 0.973835C39.13 0.708215 38.74 0.55899 38.3334 0.55899H1.53333ZM0 13.3063C0 12.9307 0.161547 12.5704 0.449103 12.3048C0.736659 12.0392 1.12667 11.8899 1.53333 11.8899H38.3334C38.74 11.8899 39.13 12.0392 39.4176 12.3048C39.7052 12.5704 39.8667 12.9307 39.8667 13.3063C39.8667 13.6819 39.7052 14.0422 39.4176 14.3078C39.13 14.5734 38.74 14.7227 38.3334 14.7227H1.53333C1.12667 14.7227 0.736659 14.5734 0.449103 14.3078C0.161547 14.0422 0 13.6819 0 13.3063ZM0 24.6372C0 24.2616 0.161547 23.9013 0.449103 23.6357C0.736659 23.3701 1.12667 23.2209 1.53333 23.2209H38.3334C38.74 23.2209 39.13 23.3701 39.4176 23.6357C39.7052 23.9013 39.8667 24.2616 39.8667 24.6372C39.8667 25.0129 39.7052 25.3731 39.4176 25.6388C39.13 25.9044 38.74 26.0536 38.3334 26.0536H1.53333C1.12667 26.0536 0.736659 25.9044 0.449103 25.6388C0.161547 25.3731 0 25.0129 0 24.6372Z" fill="white"/>
</svg>
