<svg width="65" height="55" viewBox="0 0 65 55" fill="none" xmlns="http://www.w3.org/2000/svg">
<g clip-path="url(#clip0)">
<path d="M25.3566 21.5228C21.9709 29.6117 15.7038 34.6942 11.3337 32.8807C6.96352 31.0673 6.14712 23.0738 9.53279 14.9848C12.1501 8.7332 15.3436 1.07376 15.3436 1.07376L31.4316 7.51628C31.4316 7.51628 28.7422 13.4338 25.3566 21.5228Z" stroke="#F0F0F0" stroke-width="2" stroke-miterlimit="10"/>
<path d="M10.5413 12.551L26.5091 18.7787" stroke="#F0F0F0" stroke-width="2" stroke-miterlimit="10"/>
<path d="M17.3847 23.1692C18.0477 23.1692 18.5853 22.635 18.5853 21.9761C18.5853 21.3172 18.0477 20.7831 17.3847 20.7831C16.7216 20.7831 16.1841 21.3172 16.1841 21.9761C16.1841 22.635 16.7216 23.1692 17.3847 23.1692Z" fill="#F0F0F0"/>
<path d="M13.6628 27.4642C14.5248 27.4642 15.2236 26.7698 15.2236 25.9132C15.2236 25.0567 14.5248 24.3623 13.6628 24.3623C12.8008 24.3623 12.1021 25.0567 12.1021 25.9132C12.1021 26.7698 12.8008 27.4642 13.6628 27.4642Z" fill="#F0F0F0"/>
<path d="M18.1049 5.98915L15.9438 10.5228" stroke="#F0F0F0" stroke-width="2" stroke-miterlimit="10" stroke-linecap="round"/>
<path d="M10.8295 34L5.13867 46.9566" stroke="#F0F0F0" stroke-width="2" stroke-miterlimit="10" stroke-linecap="round"/>
<path d="M1 46.3579L5 47.8579L9 49.3579" stroke="#F0F0F0" stroke-width="2" stroke-miterlimit="10" stroke-linecap="round"/>
<path d="M39.9075 28.0846C43.1971 36.1974 49.4162 41.3514 53.8103 39.5857C58.2045 37.82 59.0929 29.8265 55.8033 21.7137C53.2581 15.4382 50.1365 7.75488 50.1365 7.75488L33.9766 14.0065C33.9766 14.0065 36.6179 19.9718 39.9075 28.0846Z" stroke="#F0F0F0" stroke-width="2" stroke-miterlimit="10"/>
<path d="M54.7949 19.2798L38.7791 25.3406" stroke="#F0F0F0" stroke-width="2" stroke-miterlimit="10"/>
<path d="M47.8556 29.8265C48.5187 29.8265 49.0562 29.2923 49.0562 28.6334C49.0562 27.9745 48.5187 27.4403 47.8556 27.4403C47.1926 27.4403 46.655 27.9745 46.655 28.6334C46.655 29.2923 47.1926 29.8265 47.8556 29.8265Z" fill="#F0F0F0"/>
<path d="M51.5293 34.1692C52.3913 34.1692 53.09 33.4748 53.09 32.6182C53.09 31.7616 52.3913 31.0672 51.5293 31.0672C50.6673 31.0672 49.9685 31.7616 49.9685 32.6182C49.9685 33.4748 50.6673 34.1692 51.5293 34.1692Z" fill="#F0F0F0"/>
<path d="M47.3032 12.6464L49.4163 17.2039" stroke="#F0F0F0" stroke-width="2" stroke-miterlimit="10" stroke-linecap="round"/>
<path d="M54.2908 39.3709L59.8375 52.3753" stroke="#F0F0F0" stroke-width="2" stroke-miterlimit="10" stroke-linecap="round"/>
<path d="M64 51L56 54" stroke="#F0F0F0" stroke-width="2" stroke-miterlimit="10" stroke-linecap="round"/>
</g>
<defs>
<clipPath id="clip0">
<rect width="65" height="55" fill="white"/>
</clipPath>
</defs>
</svg>
