<svg width="52" height="51" viewBox="0 0 52 51" fill="none" xmlns="http://www.w3.org/2000/svg">
<path d="M20.9963 22.9062L26.2255 17.78L26.2257 17.7798C26.7205 17.2946 27.0021 16.6323 27.0021 15.9375C27.0021 15.2427 26.7205 14.5804 26.2257 14.0952C25.7316 13.6106 25.0655 13.3417 24.375 13.3417C23.6845 13.3417 23.0184 13.6106 22.5243 14.0952L12.7752 23.6568C12.7751 23.6569 12.775 23.657 12.7749 23.6571C12.5297 23.8971 12.3341 24.1832 12.2002 24.4995C12.0663 24.8161 11.9971 25.1561 11.9971 25.5C11.9971 25.8439 12.0663 26.1839 12.2002 26.5005C12.3341 26.8168 12.5297 27.1029 12.7749 27.3429C12.775 27.343 12.7751 27.3431 12.7752 27.3432L22.5243 36.9048C22.7691 37.1449 23.0587 37.3344 23.376 37.4633C23.6933 37.5922 24.0327 37.6583 24.375 37.6583C24.7173 37.6583 25.0567 37.5922 25.374 37.4633C25.6913 37.3344 25.9809 37.1449 26.2257 36.9048C26.4706 36.6647 26.6658 36.3785 26.7994 36.0622C26.933 35.7459 27.0021 35.4061 27.0021 35.0625C27.0021 34.7189 26.933 34.3791 26.7994 34.0628C26.6658 33.7465 26.4706 33.4603 26.2257 33.2202L26.2255 33.22L20.9963 28.0938H37.375C38.065 28.0938 38.7305 27.8251 39.2243 27.3409C39.7186 26.856 40 26.1942 40 25.5C40 24.8058 39.7186 24.144 39.2243 23.6591C38.7305 23.1749 38.065 22.9062 37.375 22.9062H20.9963ZM8.31543 8.18272C13.0024 3.58587 19.3634 1 26 1C32.6366 1 38.9976 3.58587 43.6846 8.18272C48.3709 12.7789 51 19.0085 51 25.5C51 31.9915 48.3709 38.2211 43.6846 42.8173C38.9976 47.4141 32.6366 50 26 50C19.3634 50 13.0024 47.4141 8.31543 42.8173C3.62911 38.2211 1 31.9915 1 25.5C1 19.0085 3.62911 12.7789 8.31543 8.18272Z" stroke="black" stroke-width="2"/>
</svg>
