<svg width="60" height="59" viewBox="0 0 60 59" fill="none" xmlns="http://www.w3.org/2000/svg">
<g clip-path="url(#clip0)">
<path d="M58.7904 30.8794H1.20972V41.8179H58.7904V30.8794Z" stroke="#F0F0F0" stroke-width="2.5" stroke-miterlimit="10"/>
<path d="M9.00003 38.6719C10.1224 38.6719 11.0323 37.7617 11.0323 36.639C11.0323 35.5164 10.1224 34.6062 9.00003 34.6062C7.87765 34.6062 6.96777 35.5164 6.96777 36.639C6.96777 37.7617 7.87765 38.6719 9.00003 38.6719Z" fill="#F0F0F0"/>
<path d="M50.4195 38.6719C51.5419 38.6719 52.4517 37.7617 52.4517 36.639C52.4517 35.5164 51.5419 34.6062 50.4195 34.6062C49.2971 34.6062 48.3872 35.5164 48.3872 36.639C48.3872 37.7617 49.2971 38.6719 50.4195 38.6719Z" fill="#F0F0F0"/>
<path d="M58.7904 46.8515H1.20972V57.79H58.7904V46.8515Z" stroke="#F0F0F0" stroke-width="2.5" stroke-miterlimit="10"/>
<path d="M9.00003 54.644C10.1224 54.644 11.0323 53.7338 11.0323 52.6112C11.0323 51.4885 10.1224 50.5783 9.00003 50.5783C7.87765 50.5783 6.96777 51.4885 6.96777 52.6112C6.96777 53.7338 7.87765 54.644 9.00003 54.644Z" fill="#F0F0F0"/>
<path d="M50.4195 54.644C51.5419 54.644 52.4517 53.7338 52.4517 52.6112C52.4517 51.4885 51.5419 50.5783 50.4195 50.5783C49.2971 50.5783 48.3872 51.4885 48.3872 52.6112C48.3872 53.7338 49.2971 54.644 50.4195 54.644Z" fill="#F0F0F0"/>
<path d="M8.70962 30.8794C8.70962 30.8794 6.04833 16.2141 13.1128 8.61526C13.1128 8.61526 27.7741 12.5357 32.9516 30.8794" stroke="#F0F0F0" stroke-width="2" stroke-miterlimit="10"/>
<path d="M16.7902 30.8794L13.1128 8.61526C13.1128 8.61526 22.7902 22.0706 25.1612 30.8794" stroke="#F0F0F0" stroke-width="2" stroke-miterlimit="10" stroke-linejoin="round"/>
<path d="M8.66138 18.8761C8.66138 18.8761 12.0001 18.8277 23.2259 14.6169" stroke="#F0F0F0" stroke-width="2" stroke-miterlimit="10"/>
<path d="M8.66138 28.653C8.66138 28.653 19.5969 23.813 29.6614 22.7482" stroke="#F0F0F0" stroke-width="2" stroke-miterlimit="10"/>
<path d="M54.3872 30.9762C54.3872 30.9762 58.113 9.48646 49.984 1.35521C49.984 1.35521 35.3227 5.27563 30.1453 23.6194" stroke="#F0F0F0" stroke-width="2" stroke-miterlimit="10"/>
<path d="M46.016 30.9762L50.0322 1.35521C50.0322 1.35521 37.6451 19.6505 35.8547 30.9762" stroke="#F0F0F0" stroke-width="2" stroke-miterlimit="10" stroke-linejoin="round"/>
<path d="M54.4839 11.6161C54.4839 11.6161 51.1452 11.5677 39.9194 7.35686" stroke="#F0F0F0" stroke-width="2" stroke-miterlimit="10"/>
<path d="M55.1613 21.393C55.1613 21.393 43.5 16.5529 33.4839 15.4881" stroke="#F0F0F0" stroke-width="2" stroke-miterlimit="10"/>
<path d="M30.6292 22.1673C30.6292 22.1673 43.1614 28.5078 54.7259 28.653" stroke="#F0F0F0" stroke-width="2" stroke-miterlimit="10"/>
</g>
<defs>
<clipPath id="clip0">
<rect width="60" height="59" fill="white"/>
</clipPath>
</defs>
</svg>
