<svg width="49" height="64" viewBox="0 0 49 64" fill="none" xmlns="http://www.w3.org/2000/svg">
<path d="M23.7531 51.1667C25.3129 52.7265 25.4136 55.343 22.3442 58.4627C19.2748 61.5824 12.5322 62.4881 12.5322 62.4881C12.5322 62.4881 13.6392 55.9972 16.7589 52.8775C19.8786 49.7578 22.2435 49.6571 23.7531 51.1667Z" stroke="#F0F0F0" stroke-width="2" stroke-miterlimit="10"/>
<path d="M28.3324 50.8649C26.7726 52.4247 26.6719 55.0413 29.7413 58.161C32.8107 61.2807 39.5533 62.1864 39.5533 62.1864C39.5533 62.1864 38.4966 55.6954 35.3769 52.5757C32.2572 49.456 29.8923 49.3554 28.3324 50.8649Z" stroke="#F0F0F0" stroke-width="2" stroke-miterlimit="10"/>
<path d="M11.2242 24.448V32.5995H39.8046V23.9952C39.8046 23.9952 50.0191 22.5863 46.5472 12.1202C46.5472 12.1202 42.3708 4.47192 34.2194 7.49098C34.2194 7.49098 31.2003 1 24.4577 1C17.7152 1 14.4948 4.72351 14.042 6.58526C14.042 6.58526 9.16116 4.01906 5.68924 6.58526C2.21732 9.15147 1.26128 10.51 1.00969 14.938C0.758103 19.366 5.43765 24.2468 11.2242 24.448Z" stroke="#F0F0F0" stroke-width="2" stroke-miterlimit="10"/>
<path d="M39.4523 32.9517C39.4523 40.6 33.1626 46.789 25.4136 46.789C17.6647 46.789 11.375 40.6 11.375 32.9517" stroke="#F0F0F0" stroke-width="2" stroke-miterlimit="10"/>
</svg>
