<svg width="52" height="51" viewBox="0 0 52 51" fill="none" xmlns="http://www.w3.org/2000/svg">
<g clip-path="url(#clip0)">
<path d="M31.0037 28.0937L25.7745 33.22L25.7743 33.2202C25.2795 33.7054 24.9979 34.3677 24.9979 35.0625C24.9979 35.7573 25.2795 36.4196 25.7743 36.9048C26.2684 37.3894 26.9345 37.6583 27.625 37.6583C28.3155 37.6583 28.9816 37.3894 29.4757 36.9048L39.2248 27.3432C39.2249 27.3431 39.225 27.343 39.2251 27.3429C39.4703 27.1029 39.6659 26.8168 39.7998 26.5005C39.9337 26.1839 40.0029 25.8439 40.0029 25.5C40.0029 25.1561 39.9337 24.8161 39.7998 24.4995C39.6659 24.1832 39.4703 23.8971 39.2251 23.6571C39.225 23.657 39.2249 23.6569 39.2248 23.6568L29.4757 14.0952C29.2309 13.8551 28.9413 13.6656 28.624 13.5367C28.3067 13.4078 27.9673 13.3417 27.625 13.3417C27.2827 13.3417 26.9433 13.4078 26.626 13.5367C26.3087 13.6656 26.0191 13.8551 25.7743 14.0952C25.5294 14.3353 25.3342 14.6215 25.2006 14.9378C25.067 15.2541 24.998 15.5939 24.998 15.9375C24.998 16.2811 25.067 16.6209 25.2006 16.9372C25.3342 17.2535 25.5294 17.5397 25.7743 17.7798L25.7745 17.78L31.0037 22.9062L14.625 22.9062C13.935 22.9062 13.2695 23.1749 12.7757 23.6591C12.2814 24.144 12 24.8058 12 25.5C12 26.1942 12.2814 26.856 12.7757 27.3409C13.2695 27.8251 13.935 28.0937 14.625 28.0937L31.0037 28.0937ZM43.6846 42.8173C38.9976 47.4141 32.6366 50 26 50C19.3634 50 13.0024 47.4141 8.31543 42.8173C3.62911 38.2211 1 31.9915 1 25.5C1 19.0085 3.62911 12.7789 8.31544 8.18271C13.0024 3.58586 19.3634 0.999997 26 0.999998C32.6366 0.999998 38.9976 3.58586 43.6846 8.18272C48.3709 12.7789 51 19.0085 51 25.5C51 31.9915 48.3709 38.2211 43.6846 42.8173Z" stroke="black" stroke-width="2"/>
</g>
<defs>
<clipPath id="clip0">
<rect width="52" height="51" fill="white" transform="translate(52 51) rotate(-180)"/>
</clipPath>
</defs>
</svg>
