<svg width="211" height="240" viewBox="0 0 211 240" fill="none" xmlns="http://www.w3.org/2000/svg">
<g filter="url(#filter0_d)">
<path d="M97.9197 219.783C17.9486 190.452 7.26621 89.7491 11.9214 43.0641C55.435 43.0641 87.3843 23.0214 97.9197 13C126.145 34.7048 171.913 42.0864 191.268 43.0641C193.032 175.053 129.771 215.872 97.9197 219.783Z" fill="url(#paint0_radial)"/>
</g>
<g filter="url(#filter1_d)">
<path fill-rule="evenodd" clip-rule="evenodd" d="M97.8606 232C7.82327 199.092 -4.20378 86.1088 1.03736 33.7305C50.0283 33.7305 85.9991 11.2435 97.8606 0C129.639 24.3518 181.167 32.6336 202.959 33.7305C204.945 181.816 133.721 227.612 97.8606 232ZM97.664 219.391C18.2483 190.06 7.64011 89.3576 12.263 42.6726C55.4744 42.6726 87.2018 22.6299 97.664 12.6085C125.693 34.3133 171.143 41.6949 190.364 42.6726C192.116 174.662 129.294 215.48 97.664 219.391Z" fill="#FFC806" fill-opacity="0.7"/>
</g>
<defs>
<filter id="filter0_d" x="11" y="13" width="188.304" height="214.783" filterUnits="userSpaceOnUse" color-interpolation-filters="sRGB">
<feFlood flood-opacity="0" result="BackgroundImageFix"/>
<feColorMatrix in="SourceAlpha" type="matrix" values="0 0 0 0 0 0 0 0 0 0 0 0 0 0 0 0 0 0 127 0" result="hardAlpha"/>
<feOffset dx="4" dy="4"/>
<feGaussianBlur stdDeviation="2"/>
<feColorMatrix type="matrix" values="0 0 0 0 0 0 0 0 0 0 0 0 0 0 0 0 0 0 0.25 0"/>
<feBlend mode="normal" in2="BackgroundImageFix" result="effect1_dropShadow"/>
<feBlend mode="normal" in="SourceGraphic" in2="effect1_dropShadow" result="shape"/>
</filter>
<filter id="filter1_d" x="0" y="0" width="211" height="240" filterUnits="userSpaceOnUse" color-interpolation-filters="sRGB">
<feFlood flood-opacity="0" result="BackgroundImageFix"/>
<feColorMatrix in="SourceAlpha" type="matrix" values="0 0 0 0 0 0 0 0 0 0 0 0 0 0 0 0 0 0 127 0" result="hardAlpha"/>
<feOffset dx="4" dy="4"/>
<feGaussianBlur stdDeviation="2"/>
<feColorMatrix type="matrix" values="0 0 0 0 0 0 0 0 0 0 0 0 0 0 0 0 0 0 0.25 0"/>
<feBlend mode="normal" in2="BackgroundImageFix" result="effect1_dropShadow"/>
<feBlend mode="normal" in="SourceGraphic" in2="effect1_dropShadow" result="shape"/>
</filter>
<radialGradient id="paint0_radial" cx="0" cy="0" r="1" gradientUnits="userSpaceOnUse" gradientTransform="translate(101.152 116.391) rotate(90) scale(103.391 90.1522)">
<stop stop-color="#2E2E2E" stop-opacity="0.68"/>
<stop offset="1" stop-color="#2E2E2E"/>
</radialGradient>
</defs>
</svg>
