<svg width="59" height="65" viewBox="0 0 59 65" fill="none" xmlns="http://www.w3.org/2000/svg">
<path d="M18.7769 56.8734C8.89783 52.8391 2 43.4259 2 32.4438C2 18.2679 13.5743 6.66951 28.1884 5.88507" stroke="#E2E2E2" stroke-width="2.5" stroke-miterlimit="10" stroke-linecap="round"/>
<path d="M23.9794 12.1045L22.8688 11.208L27.6037 6.05316L21.875 1.85084L22.8103 0.730225L31.0461 5.70181L23.9794 12.1045Z" fill="#E2E2E2"/>
<path d="M42.2758 8.68658C51.3365 13.057 57.5328 22.078 57.5328 32.4438C57.5328 46.6196 45.9585 58.2181 31.3445 59.0025" stroke="#E2E2E2" stroke-width="2.5" stroke-miterlimit="10" stroke-linecap="round"/>
<path d="M35.5538 52.783L36.6645 53.6795L31.9295 58.8344L37.6582 63.0368L36.7229 64.1574L28.9712 58.8344L35.5538 52.783Z" fill="#E2E2E2"/>
<path d="M26.8555 47.4114C26.8555 47.4114 31.4308 34.2548 41.6907 31.0653" stroke="#E2E2E2" stroke-width="2" stroke-miterlimit="10" stroke-linecap="round"/>
<path d="M29.2815 42.0957C29.2815 42.0957 25.9539 27.4107 37.9469 26.0153C37.9469 26.0153 46.8204 25.5502 49.4547 25.5502C49.4547 25.5502 47.3057 27.6101 45.8499 33.391C44.3941 39.172 40.5119 44.4213 29.2815 42.0957Z" stroke="#E2E2E2" stroke-width="2" stroke-miterlimit="10" stroke-linecap="round"/>
<path d="M10.3562 21.8955C10.3562 21.8955 11.9506 27.012 13.6837 29.7364C15.0009 31.7298 20.1308 35.2516 24.2209 33.391C28.311 31.5305 24.2209 23.4903 20.8934 22.8258C17.5658 22.0949 10.3562 21.8955 10.3562 21.8955Z" stroke="#E2E2E2" stroke-width="2" stroke-miterlimit="10" stroke-linecap="round"/>
<path d="M19.6455 28.0752C19.6455 28.0752 29.2122 36.4476 29.6282 41.2319" stroke="#E2E2E2" stroke-width="2" stroke-miterlimit="10" stroke-linecap="round"/>
</svg>
